<svg width="22" height="21" viewBox="0 0 22 21" fill="none" xmlns="http://www.w3.org/2000/svg">
<path d="M11.0625 5.20898C8.1875 5.20898 5.89648 7.54492 5.89648 10.375C5.89648 13.25 8.1875 15.541 11.0625 15.541C13.8926 15.541 16.2285 13.25 16.2285 10.375C16.2285 7.54492 13.8926 5.20898 11.0625 5.20898ZM11.0625 13.7441C9.2207 13.7441 7.69336 12.2617 7.69336 10.375C7.69336 8.5332 9.17578 7.05078 11.0625 7.05078C12.9043 7.05078 14.3867 8.5332 14.3867 10.375C14.3867 12.2617 12.9043 13.7441 11.0625 13.7441ZM17.6211 5.0293C17.6211 4.35547 17.082 3.81641 16.4082 3.81641C15.7344 3.81641 15.1953 4.35547 15.1953 5.0293C15.1953 5.70312 15.7344 6.24219 16.4082 6.24219C17.082 6.24219 17.6211 5.70312 17.6211 5.0293ZM21.0352 6.24219C20.9453 4.625 20.5859 3.1875 19.418 2.01953C18.25 0.851562 16.8125 0.492188 15.1953 0.402344C13.5332 0.3125 8.54688 0.3125 6.88477 0.402344C5.26758 0.492188 3.875 0.851562 2.66211 2.01953C1.49414 3.1875 1.13477 4.625 1.04492 6.24219C0.955078 7.9043 0.955078 12.8906 1.04492 14.5527C1.13477 16.1699 1.49414 17.5625 2.66211 18.7754C3.875 19.9434 5.26758 20.3027 6.88477 20.3926C8.54688 20.4824 13.5332 20.4824 15.1953 20.3926C16.8125 20.3027 18.25 19.9434 19.418 18.7754C20.5859 17.5625 20.9453 16.1699 21.0352 14.5527C21.125 12.8906 21.125 7.9043 21.0352 6.24219ZM18.8789 16.3047C18.5645 17.2031 17.8457 17.877 16.9922 18.2363C15.6445 18.7754 12.5 18.6406 11.0625 18.6406C9.58008 18.6406 6.43555 18.7754 5.13281 18.2363C4.23438 17.877 3.56055 17.2031 3.20117 16.3047C2.66211 15.002 2.79688 11.8574 2.79688 10.375C2.79688 8.9375 2.66211 5.79297 3.20117 4.44531C3.56055 3.5918 4.23438 2.91797 5.13281 2.55859C6.43555 2.01953 9.58008 2.1543 11.0625 2.1543C12.5 2.1543 15.6445 2.01953 16.9922 2.55859C17.8457 2.87305 18.5195 3.5918 18.8789 4.44531C19.418 5.79297 19.2832 8.9375 19.2832 10.375C19.2832 11.8574 19.418 15.002 18.8789 16.3047Z" fill="#C1272D"/>
</svg>
