<svg width="29" height="25" viewBox="0 0 29 25" fill="none" xmlns="http://www.w3.org/2000/svg">
<path d="M14.1347 17.8042C13.888 17.8042 13.6842 17.7291 13.5233 17.5789C13.3731 17.418 13.298 17.2142 13.298 16.9675V7.76378H10.08C9.56506 7.76378 9.30762 7.53315 9.30762 7.07189C9.30762 6.84663 9.37198 6.675 9.5007 6.557C9.64015 6.439 9.83324 6.38 10.08 6.38H18.1895C18.4362 6.38 18.624 6.439 18.7527 6.557C18.8921 6.675 18.9618 6.84663 18.9618 7.07189C18.9618 7.53315 18.7044 7.76378 18.1895 7.76378H14.9714V16.9675C14.9714 17.2142 14.8963 17.418 14.7462 17.5789C14.596 17.7291 14.3922 17.8042 14.1347 17.8042Z" fill="#344054"/>
<rect x="3.12326" y="3.12302" width="21.6385" height="18.2923" stroke="#344054" stroke-width="1.78462"/>
<circle cx="2.23077" cy="2.23077" r="1.56154" fill="white" stroke="#344054" stroke-width="1.33846"/>
<circle cx="26.7693" cy="2.23077" r="1.56154" fill="white" stroke="#344054" stroke-width="1.33846"/>
<circle cx="26.7693" cy="22.3077" r="1.56154" fill="white" stroke="#344054" stroke-width="1.33846"/>
<circle cx="2.23077" cy="22.3077" r="1.56154" fill="white" stroke="#344054" stroke-width="1.33846"/>
</svg>
