<svg width="21" height="26" viewBox="0 0 21 26" fill="none" xmlns="http://www.w3.org/2000/svg">
<path d="M14.6154 8.26147H16.8846C17.4865 8.26147 18.0636 8.50055 18.4892 8.92612C18.9148 9.35168 19.1538 9.92887 19.1538 10.5307V22.3307C19.1538 22.9325 18.9148 23.5097 18.4892 23.9353C18.0636 24.3609 17.4865 24.5999 16.8846 24.5999H3.26923C2.66739 24.5999 2.09021 24.3609 1.66464 23.9353C1.23908 23.5097 1 22.9325 1 22.3307V10.5307C1 9.92887 1.23908 9.35168 1.66464 8.92612C2.09021 8.50055 2.66739 8.26147 3.26923 8.26147H5.53846" stroke="#344054" stroke-width="1.81538" stroke-linecap="round" stroke-linejoin="round"/>
<path d="M5.53857 13.7078L10.077 18.2462L14.6155 13.7078" stroke="#344054" stroke-width="1.81538" stroke-linecap="round" stroke-linejoin="round"/>
<path d="M10.0771 1V17.3385" stroke="#344054" stroke-width="1.81538" stroke-linecap="round" stroke-linejoin="round"/>
</svg>
