<svg width="25" height="22" viewBox="0 0 25 22" fill="none" xmlns="http://www.w3.org/2000/svg">
<path d="M24.9998 7.58348C24.9998 7.1088 24.8151 6.63393 24.4723 6.29099L23.8921 5.71071C23.2063 5.02498 21.993 5.02498 21.3072 5.71071L20.7798 6.23819L20.6215 6.07996C20.3577 5.81612 19.9358 5.81612 19.6983 6.07996L10.4138 15.3644C10.3347 15.4435 10.2819 15.5226 10.2556 15.6018L8.64663 20.2176C8.51471 20.5869 8.62032 21.0089 8.88397 21.2991C9.095 21.5101 9.33234 21.6155 9.62251 21.6155C9.72793 21.6155 9.85985 21.5892 9.96545 21.5627L14.5813 19.9276C14.6867 19.9013 14.766 19.8485 14.8186 19.7694L24.1031 10.485C24.235 10.353 24.2878 10.1948 24.2878 10.0103C24.2878 9.82556 24.2087 9.66734 24.1031 9.5356L23.9449 9.37737L24.4724 8.8499C24.8151 8.53307 24.9998 8.0847 24.9998 7.5835L24.9998 7.58348ZM12.1809 15.47L18.1156 9.53532L20.6741 12.0938L14.7131 18.0021L12.1809 15.47ZM11.337 16.4987L13.6845 18.8461L10.071 20.1122L11.337 16.4987ZM21.571 11.1443L19.0125 8.58578L20.1466 7.45169L22.7051 10.0102L21.571 11.1443ZM21.7292 7.16136L22.2567 6.63388C22.4414 6.44916 22.7842 6.44916 22.9689 6.63388L23.5492 7.21416C23.7339 7.39889 23.7339 7.74164 23.5492 7.92637L23.0217 8.45385L21.7292 7.16136Z" fill="#344054"/>
<path d="M6.48384 20.2705C3.21313 20.2705 1.68335 19.3472 1.36684 18.5296C1.02389 17.712 1.7889 16.8152 2.26358 16.3404C3.31854 15.3117 4.82208 14.6786 6.1409 14.0983C7.98719 13.3069 9.72807 12.5685 9.72807 10.8804C9.72807 8.79674 7.59164 8.48008 5.85076 8.24274C3.92534 7.9526 3.0284 7.74155 3.0284 6.81852C3.0284 6.60748 3.08121 6.47557 3.23944 6.34384C4.08357 5.4997 7.09047 5.52622 9.728 5.5525C12.8931 5.57881 15.6099 5.63162 16.7705 4.49755C17.1134 4.1546 17.2979 3.70621 17.2979 3.20506C17.2979 2.57198 17.0341 1.96538 16.5594 1.4907C14.7659 -0.144585 10.3346 -0.0128451 9.83346 0.0136725C9.4642 0.0399823 9.17405 0.330131 9.20038 0.699409C9.22669 1.06867 9.51684 1.33249 9.88612 1.33249C11.0995 1.27968 14.4492 1.38529 15.6098 2.49309C15.8471 2.70412 15.9527 2.96777 15.9527 3.23163C15.9527 3.36355 15.8999 3.46897 15.8208 3.57457C15.0823 4.31311 12.2336 4.28678 9.72788 4.26031C6.53625 4.234 3.52945 4.1812 2.28977 5.42092C1.8942 5.79017 1.70949 6.29133 1.70949 6.84514C1.70949 8.98157 3.89872 9.32456 5.66593 9.5619C7.53874 9.82574 8.40897 10.0631 8.40897 10.907C8.40897 11.7247 7.11649 12.2787 5.63941 12.9116C4.21519 13.5182 2.57972 14.2041 1.3665 15.4173C-0.295251 17.0526 -0.0842406 18.3979 0.179616 19.0573C0.786601 20.6664 3.10757 21.616 6.48355 21.616C6.85281 21.616 7.14296 21.3258 7.14296 20.9565C7.14296 20.5873 6.85281 20.2707 6.48355 20.2707L6.48384 20.2705Z" fill="#344054"/>
</svg>
