<svg width="13" height="13" viewBox="0 0 13 13" fill="none" xmlns="http://www.w3.org/2000/svg">
<path d="M0.508622 12.0109C0.373718 12.0102 0.244405 11.9569 0.148273 11.8623C0.0860211 11.7995 0.0411047 11.7217 0.0179107 11.6364C-0.00528327 11.5511 -0.00596185 11.4613 0.0159413 11.3757L0.647061 8.90821C0.669751 8.81986 0.715405 8.73909 0.779393 8.67409L9.30562 0.147857C9.40163 0.0531183 9.53109 0 9.66597 0C9.80085 0 9.93031 0.0531183 10.0263 0.147857L11.8586 1.98014C11.9538 2.07589 12.0073 2.20545 12.0073 2.34049C12.0073 2.47553 11.9538 2.60509 11.8586 2.70084L3.33645 11.2311C3.27144 11.2951 3.19067 11.3408 3.10232 11.3635L0.634846 11.9946C0.593565 12.005 0.551193 12.0105 0.508622 12.0109ZM1.59781 9.29503L1.22118 10.7894L2.72161 10.4066L10.7898 2.34456L9.66597 1.22076L1.59781 9.29503Z" fill="#1E2939"/>
<path d="M9.92628 4.42936C9.79117 4.42678 9.66249 4.37121 9.56797 4.27463L7.73569 2.44235C7.68837 2.39503 7.65083 2.33885 7.62522 2.27702C7.59961 2.21519 7.58643 2.14892 7.58643 2.082C7.58643 2.01508 7.59961 1.94881 7.62522 1.88698C7.65083 1.82515 7.68837 1.76897 7.73569 1.72165C7.78301 1.67433 7.83919 1.63679 7.90102 1.61118C7.96285 1.58557 8.02911 1.57239 8.09604 1.57239C8.16296 1.57239 8.22923 1.58557 8.29106 1.61118C8.35288 1.63679 8.40906 1.67433 8.45639 1.72165L10.2887 3.55393C10.36 3.62512 10.4087 3.71589 10.4284 3.81474C10.4481 3.91359 10.438 4.01607 10.3994 4.10918C10.3608 4.20229 10.2954 4.28185 10.2116 4.33776C10.1277 4.39368 10.0291 4.42343 9.92832 4.42325L9.92628 4.42936Z" fill="#1E2939"/>
<path d="M9.54583 12.011H5.41912C5.28414 12.011 5.15468 11.9574 5.05923 11.8619C4.96378 11.7665 4.91016 11.637 4.91016 11.502C4.91016 11.367 4.96378 11.2376 5.05923 11.1421C5.15468 11.0467 5.28414 10.993 5.41912 10.993H9.54583C9.68082 10.993 9.81028 11.0467 9.90573 11.1421C10.0012 11.2376 10.0548 11.367 10.0548 11.502C10.0548 11.637 10.0012 11.7665 9.90573 11.8619C9.81028 11.9574 9.68082 12.011 9.54583 12.011Z" fill="#1E2939"/>
</svg>
