<svg width="26" height="23" viewBox="0 0 26 23" fill="none" xmlns="http://www.w3.org/2000/svg">
<path d="M1 16.4286L6.64496 10.7836C7.31443 10.1141 8.39986 10.1141 9.06933 10.7836L13.663 15.3773C14.2662 15.9805 15.2212 16.0484 15.9037 15.5365L17.4901 14.3467C17.9031 14.037 18.4336 13.9298 18.9344 14.055L25 15.5714M18.1429 7.85714C18.1429 8.80392 17.3753 9.57143 16.4286 9.57143C15.4818 9.57143 14.7143 8.80392 14.7143 7.85714C14.7143 6.91037 15.4818 6.14286 16.4286 6.14286C17.3753 6.14286 18.1429 6.91037 18.1429 7.85714ZM4.42857 21.5714H21.5714C23.465 21.5714 25 20.0364 25 18.1429V4.42857C25 2.53502 23.465 1 21.5714 1H4.42857C2.53502 1 1 2.53503 1 4.42857V18.1429C1 20.0364 2.53502 21.5714 4.42857 21.5714Z" stroke="#344054" stroke-width="1.69412"/>
</svg>
