<svg width="13" height="13" viewBox="0 0 13 13" fill="none" xmlns="http://www.w3.org/2000/svg">
<path d="M0.508622 12.0109C0.373718 12.0102 0.244405 11.9569 0.148273 11.8623C0.0860211 11.7995 0.0411047 11.7217 0.0179107 11.6364C-0.00528327 11.5511 -0.00596185 11.4613 0.0159413 11.3757L0.647061 8.90821C0.669751 8.81986 0.715405 8.73909 0.779393 8.67409L9.30562 0.147857C9.40163 0.0531183 9.53109 0 9.66597 0C9.80085 0 9.93031 0.0531183 10.0263 0.147857L11.8586 1.98014C11.9538 2.07589 12.0073 2.20545 12.0073 2.34049C12.0073 2.47553 11.9538 2.60509 11.8586 2.70084L3.33645 11.2311C3.27144 11.2951 3.19067 11.3408 3.10232 11.3635L0.634846 11.9946C0.593565 12.005 0.551193 12.0105 0.508622 12.0109ZM1.59781 9.29503L1.22118 10.7894L2.72161 10.4066L10.7898 2.34456L9.66597 1.22076L1.59781 9.29503Z" fill="#1E2939"/>
</svg>
